<svg width="21" height="21" viewBox="0 0 21 21" fill="none" xmlns="http://www.w3.org/2000/svg">
<path d="M14.6667 9.45842H8.77091L10.073 8.09383C10.2636 7.89354 10.3669 7.62573 10.36 7.3493C10.3532 7.07288 10.2368 6.8105 10.0365 6.61988C9.83625 6.42925 9.56843 6.326 9.29201 6.33284C9.01559 6.33968 8.75321 6.45604 8.56258 6.65633L5.58341 9.78133C5.54864 9.82393 5.51729 9.86921 5.48966 9.91675C5.44158 9.97648 5.40293 10.0432 5.37508 10.1147C5.33846 10.2078 5.31735 10.3064 5.31258 10.4063L5.29175 10.5001C5.29339 10.6362 5.32171 10.7707 5.37508 10.8959C5.42586 11.0201 5.50013 11.1333 5.59383 11.2293L8.71883 14.3543C8.81567 14.4519 8.93088 14.5294 9.05781 14.5823C9.18475 14.6351 9.3209 14.6624 9.45841 14.6624C9.59593 14.6624 9.73208 14.6351 9.85902 14.5823C9.98595 14.5294 10.1012 14.4519 10.198 14.3543C10.2956 14.2574 10.3731 14.1422 10.426 14.0153C10.4789 13.8883 10.5061 13.7522 10.5061 13.6147C10.5061 13.4772 10.4789 13.341 10.426 13.2141C10.3731 13.0871 10.2956 12.9719 10.198 12.8751L8.84383 11.5418H14.6667C14.943 11.5418 15.208 11.432 15.4033 11.2367C15.5987 11.0413 15.7084 10.7764 15.7084 10.5001C15.7084 10.2238 15.5987 9.95887 15.4033 9.76351C15.208 9.56816 14.943 9.45842 14.6667 9.45842Z" fill="white"/>
<path d="M10.5 0.083374C8.43982 0.083374 6.42587 0.694301 4.71286 1.8389C2.99984 2.9835 1.66471 4.61036 0.8763 6.51375C0.0878874 8.41715 -0.118397 10.5116 0.283532 12.5322C0.685462 14.5529 1.67755 16.4089 3.13435 17.8657C4.59115 19.3225 6.44722 20.3146 8.46786 20.7166C10.4885 21.1185 12.5829 20.9122 14.4863 20.1238C16.3897 19.3354 18.0166 18.0002 19.1612 16.2872C20.3058 14.5742 20.9167 12.5603 20.9167 10.5C20.9167 9.1321 20.6473 7.77756 20.1238 6.51375C19.6003 5.24995 18.833 4.10162 17.8657 3.13435C16.8985 2.16707 15.7501 1.39978 14.4863 0.876296C13.2225 0.352809 11.868 0.083374 10.5 0.083374ZM10.5 18.8334C8.85187 18.8334 7.2407 18.3446 5.87029 17.429C4.49988 16.5133 3.43178 15.2118 2.80105 13.6891C2.17032 12.1664 2.00529 10.4908 2.32684 8.87429C2.64838 7.25778 3.44205 5.77292 4.60749 4.60748C5.77293 3.44205 7.25779 2.64837 8.87429 2.32683C10.4908 2.00529 12.1664 2.17031 13.6891 2.80104C15.2118 3.43177 16.5133 4.49988 17.429 5.87029C18.3446 7.2407 18.8334 8.85186 18.8334 10.5C18.8334 12.7102 17.9554 14.8298 16.3926 16.3926C14.8298 17.9554 12.7102 18.8334 10.5 18.8334Z" fill="white"/>
</svg>
