<svg width="25" height="25" viewBox="0 0 25 25" fill="none" xmlns="http://www.w3.org/2000/svg">
<mask id="mask0_2_1892" style="mask-type:alpha" maskUnits="userSpaceOnUse" x="0" y="0" width="25" height="25">
<rect width="25" height="25" fill="#D9D9D9"/>
</mask>
<g mask="url(#mask0_2_1892)">
<path d="M4.16669 19.7917V17.7084H6.25002V10.4167C6.25002 8.97574 6.68405 7.69535 7.5521 6.57556C8.42016 5.45577 9.54863 4.72226 10.9375 4.37504V3.64587C10.9375 3.21185 11.0894 2.84292 11.3932 2.5391C11.6971 2.23528 12.066 2.08337 12.5 2.08337C12.934 2.08337 13.303 2.23528 13.6068 2.5391C13.9106 2.84292 14.0625 3.21185 14.0625 3.64587V4.37504C15.4514 4.72226 16.5799 5.45577 17.4479 6.57556C18.316 7.69535 18.75 8.97574 18.75 10.4167V17.7084H20.8334V19.7917H4.16669ZM12.5 22.9167C11.9271 22.9167 11.4367 22.7127 11.0287 22.3047C10.6207 21.8967 10.4167 21.4063 10.4167 20.8334H14.5834C14.5834 21.4063 14.3794 21.8967 13.9714 22.3047C13.5634 22.7127 13.0729 22.9167 12.5 22.9167ZM8.33335 17.7084H16.6667V10.4167C16.6667 9.27087 16.2587 8.28997 15.4427 7.474C14.6268 6.65803 13.6459 6.25004 12.5 6.25004C11.3542 6.25004 10.3733 6.65803 9.55731 7.474C8.74134 8.28997 8.33335 9.27087 8.33335 10.4167V17.7084Z" fill="white"/>
</g>
</svg>
