<svg width="36" height="36" viewBox="0 0 36 36" fill="none" xmlns="http://www.w3.org/2000/svg">
<mask id="mask0_2_1235" style="mask-type:alpha" maskUnits="userSpaceOnUse" x="0" y="0" width="36" height="36">
<rect width="36" height="36" fill="#D9D9D9"/>
</mask>
<g mask="url(#mask0_2_1235)">
<path d="M8.99992 33C8.17492 33 7.46867 32.7063 6.88117 32.1188C6.29367 31.5312 5.99992 30.825 5.99992 30V15C5.99992 14.175 6.29367 13.4688 6.88117 12.8813C7.46867 12.2937 8.17492 12 8.99992 12H10.4999V9C10.4999 6.925 11.2312 5.15625 12.6937 3.69375C14.1562 2.23125 15.9249 1.5 17.9999 1.5C20.0749 1.5 21.8437 2.23125 23.3062 3.69375C24.7687 5.15625 25.4999 6.925 25.4999 9V12H26.9999C27.8249 12 28.5312 12.2937 29.1187 12.8813C29.7062 13.4688 29.9999 14.175 29.9999 15V30C29.9999 30.825 29.7062 31.5312 29.1187 32.1188C28.5312 32.7063 27.8249 33 26.9999 33H8.99992ZM8.99992 30H26.9999V15H8.99992V30ZM17.9999 25.5C18.8249 25.5 19.5312 25.2063 20.1187 24.6188C20.7062 24.0312 20.9999 23.325 20.9999 22.5C20.9999 21.675 20.7062 20.9688 20.1187 20.3813C19.5312 19.7938 18.8249 19.5 17.9999 19.5C17.1749 19.5 16.4687 19.7938 15.8812 20.3813C15.2937 20.9688 14.9999 21.675 14.9999 22.5C14.9999 23.325 15.2937 24.0312 15.8812 24.6188C16.4687 25.2063 17.1749 25.5 17.9999 25.5ZM13.4999 12H22.4999V9C22.4999 7.75 22.0624 6.6875 21.1874 5.8125C20.3124 4.9375 19.2499 4.5 17.9999 4.5C16.7499 4.5 15.6874 4.9375 14.8124 5.8125C13.9374 6.6875 13.4999 7.75 13.4999 9V12Z" fill="black"/>
</g>
</svg>
