<svg width="37" height="37" viewBox="0 0 37 37" fill="none" xmlns="http://www.w3.org/2000/svg">
<path d="M18.5 16.9583C19.7196 16.9583 20.9119 16.5967 21.926 15.9191C22.9401 15.2415 23.7305 14.2784 24.1972 13.1516C24.664 12.0247 24.7861 10.7848 24.5482 9.58861C24.3102 8.3924 23.7229 7.2936 22.8605 6.43118C21.998 5.56875 20.8993 4.98144 19.703 4.74349C18.5068 4.50555 17.2669 4.62767 16.1401 5.09441C15.0133 5.56115 14.0502 6.35155 13.3726 7.36565C12.695 8.37976 12.3333 9.57202 12.3333 10.7917C12.3333 12.4272 12.983 13.9957 14.1395 15.1522C15.296 16.3086 16.8645 16.9583 18.5 16.9583ZM18.5 7.70834C19.1098 7.70834 19.7059 7.88917 20.213 8.22797C20.72 8.56677 21.1152 9.04832 21.3486 9.61173C21.582 10.1751 21.643 10.7951 21.5241 11.3932C21.4051 11.9913 21.1114 12.5407 20.6802 12.9719C20.249 13.4031 19.6996 13.6968 19.1015 13.8158C18.5034 13.9347 17.8834 13.8737 17.32 13.6403C16.7566 13.4069 16.2751 13.0117 15.9363 12.5047C15.5975 11.9976 15.4166 11.4015 15.4166 10.7917C15.4166 9.97392 15.7415 9.18966 16.3197 8.61142C16.898 8.03319 17.6822 7.70834 18.5 7.70834Z" fill="black"/>
<path d="M18.4998 20.0417C15.6376 20.0417 12.8927 21.1787 10.8689 23.2026C8.84508 25.2264 7.7081 27.9713 7.7081 30.8334C7.7081 31.2423 7.87052 31.6344 8.15964 31.9235C8.44876 32.2127 8.84089 32.3751 9.24977 32.3751C9.65864 32.3751 10.0508 32.2127 10.3399 31.9235C10.629 31.6344 10.7914 31.2423 10.7914 30.8334C10.7914 28.789 11.6036 26.8284 13.0492 25.3828C14.4947 23.9372 16.4554 23.1251 18.4998 23.1251C20.5441 23.1251 22.5048 23.9372 23.9504 25.3828C25.396 26.8284 26.2081 28.789 26.2081 30.8334C26.2081 31.2423 26.3705 31.6344 26.6596 31.9235C26.9488 32.2127 27.3409 32.3751 27.7498 32.3751C28.1586 32.3751 28.5508 32.2127 28.8399 31.9235C29.129 31.6344 29.2914 31.2423 29.2914 30.8334C29.2914 27.9713 28.1545 25.2264 26.1306 23.2026C24.1068 21.1787 21.3619 20.0417 18.4998 20.0417Z" fill="black"/>
</svg>
